<?xml version="1.0" encoding="UTF-8" standalone="no"?>
<!DOCTYPE svg PUBLIC "-//W3C//DTD SVG 1.1//EN" "http://www.w3.org/Graphics/SVG/1.1/DTD/svg11.dtd">
<svg version="1.1" xmlns="http://www.w3.org/2000/svg" xmlns:xlink="http://www.w3.org/1999/xlink" preserveAspectRatio="xMidYMid meet" viewBox="0 0 640 640" width="30" height="30"><defs><path d="M240.5 292.01C245.37 296.42 250.58 298.66 256 298.66C261.41 298.66 266.62 296.44 271.47 292.05C307.74 259.38 431.04 154.67 501.31 95.16C505.69 91.46 506.35 84.96 502.81 80.44C494.63 69.99 482.42 64 469.33 64C426.67 64 85.33 64 42.67 64C29.58 64 17.38 69.99 9.19 80.44C5.65 84.96 6.31 91.46 10.69 95.16C80.96 154.67 204.26 259.37 240.5 292.01Z" id="b2nfiFxSs"></path><path d="M494.44 128.95C416.51 195.01 317.05 279.69 285.76 307.89C268.2 323.74 243.82 323.74 226.22 307.86C192.86 277.81 81.18 182.86 17.56 128.95C14.39 126.26 9.94 125.67 6.19 127.4C2.42 129.16 0 132.93 0 137.08C0 163.91 0 378.51 0 405.33C0 428.87 19.14 448 42.67 448C85.33 448 426.67 448 469.33 448C492.87 448 512 428.87 512 405.33C512 378.51 512 163.91 512 137.08C512 132.93 509.58 129.15 505.81 127.41C502.03 125.65 497.58 126.26 494.44 128.95Z" id="h1wzCMUQ5P"></path></defs><g><g><g><use xlink:href="#b2nfiFxSs" opacity="1" fill="#e8c300" fill-opacity="1"></use><g><use xlink:href="#b2nfiFxSs" opacity="1" fill-opacity="0" stroke="#000000" stroke-width="1" stroke-opacity="0"></use></g></g><g><use xlink:href="#h1wzCMUQ5P" opacity="1" fill="#e8c300" fill-opacity="1"></use><g><use xlink:href="#h1wzCMUQ5P" opacity="1" fill-opacity="0" stroke="#000000" stroke-width="1" stroke-opacity="0"></use></g></g></g></g></svg>