<?xml version="1.0"?>
<svg xmlns="http://www.w3.org/2000/svg" xmlns:xlink="http://www.w3.org/1999/xlink" xmlns:svgjs="http://svgjs.com/svgjs" version="1.1" width="512" height="512" x="0" y="0" viewBox="0 0 512.002 512.002" style="enable-background:new 0 0 512 512" xml:space="preserve" class=""><g>
<path xmlns="http://www.w3.org/2000/svg" style="" d="M485.04,326.743l-46.006-46.006c-19.997-19.997-52.419-19.997-72.415,0l-48.379,48.379  l-135.339-135.34l48.379-48.379c19.997-19.997,19.997-52.419,0-72.415l-46.006-46.005c-19.997-19.997-52.419-19.997-72.415,0  L64.481,75.356L47.562,92.274l-0.962,0.962c-46.185,46.186-46.184,121.065,0,167.251l102.466,102.466l102.466,102.466  c46.184,46.184,121.065,46.184,167.251,0l0.962-0.962l16.917-16.917l48.379-48.379C505.038,379.161,505.038,346.739,485.04,326.743z  " fill="#e8c300" data-original="#ffce63" class=""/>
<path xmlns="http://www.w3.org/2000/svg" d="M493.499,318.283l-46.005-46.005c-11.931-11.931-27.793-18.501-44.667-18.501c-16.874,0-32.735,6.571-44.666,18.501  l-39.921,39.921l-118.42-118.421l39.92-39.921c11.931-11.931,18.502-27.793,18.502-44.666s-6.571-32.736-18.502-44.666  l-46.005-46.006c-24.63-24.628-64.704-24.628-89.335,0L38.143,84.776C13.546,109.373,0,142.075,0,176.859  s13.546,67.487,38.143,92.084l204.931,204.931c25.389,25.388,58.736,38.081,92.085,38.081s66.696-12.694,92.085-38.081  l66.257-66.258c11.931-11.931,18.501-27.793,18.501-44.666C512,346.078,505.43,330.216,493.499,318.283z M476.581,390.7  l-66.257,66.257c-20.078,20.078-46.773,31.134-75.167,31.134s-55.089-11.057-75.167-31.134L55.06,252.026  c-20.078-20.078-31.136-46.773-31.136-75.167s11.058-55.089,31.136-75.166l66.257-66.258c7.651-7.651,17.698-11.475,27.749-11.475  c10.048,0,20.1,3.826,27.749,11.475l46.005,46.006c7.412,7.412,11.495,17.266,11.495,27.749s-4.083,20.337-11.495,27.749  l-48.378,48.378c-4.671,4.671-4.671,12.246,0,16.917l135.339,135.34c4.671,4.671,12.243,4.673,16.918,0l48.379-48.379  c7.411-7.412,17.266-11.493,27.748-11.493s20.337,4.083,27.749,11.495l46.005,46.005l0,0c7.412,7.412,11.493,17.266,11.493,27.749  C488.074,373.433,483.994,383.288,476.581,390.7z" fill="#e8c300" data-original="#000000" style="" class=""/>
<path xmlns="http://www.w3.org/2000/svg" d="M357.65,146.805c0.022,0.063,0.053,0.122,0.075,0.184c0.124,0.35,0.264,0.695,0.42,1.032c0.041,0.09,0.075,0.182,0.12,0.27  c0.2,0.407,0.423,0.8,0.669,1.183c0.063,0.098,0.134,0.19,0.2,0.287c0.197,0.289,0.406,0.571,0.628,0.842  c0.085,0.104,0.171,0.206,0.26,0.306c0.245,0.279,0.502,0.545,0.774,0.803c0.063,0.06,0.123,0.123,0.187,0.182  c0.349,0.315,0.715,0.612,1.103,0.888c0.035,0.024,0.071,0.044,0.105,0.068c0.34,0.234,0.694,0.451,1.061,0.652  c0.123,0.067,0.248,0.128,0.373,0.191c0.291,0.146,0.589,0.28,0.895,0.404c0.147,0.06,0.293,0.12,0.443,0.173  c0.086,0.031,0.166,0.071,0.254,0.099l50.748,16.922c1.255,0.419,2.531,0.618,3.785,0.618c5.009,0,9.676-3.17,11.346-8.182  c2.09-6.267-1.297-13.041-7.564-15.131l-32.388-10.8l53.98-53.98c4.671-4.671,4.671-12.246,0-16.918  c-4.673-4.671-12.245-4.671-16.918,0l-53.98,53.98l-10.8-32.388c-2.09-6.266-8.864-9.656-15.131-7.564  c-6.267,2.09-9.654,8.865-7.564,15.132L357.65,146.805z" fill="#e8c300" data-original="#000000" style="" class=""/>
<path xmlns="http://www.w3.org/2000/svg" d="M94.438,112.645c-4.671-4.671-12.243-4.671-16.918,0c-17.095,17.097-26.511,39.826-26.511,64.003  s9.416,46.908,26.511,64.005c2.336,2.336,5.397,3.504,8.459,3.504s6.122-1.168,8.459-3.504c4.671-4.671,4.671-12.246,0-16.918  c-12.578-12.577-19.505-29.299-19.505-47.086s6.926-34.509,19.505-47.086C99.111,124.89,99.111,117.317,94.438,112.645z" fill="#e8c300" data-original="#000000" style="" class=""/>
<path xmlns="http://www.w3.org/2000/svg" d="M121.218,250.515c-4.684-4.659-12.259-4.638-16.918,0.047c-4.659,4.684-4.638,12.259,0.047,16.917l0.106,0.105  c2.334,2.321,5.384,3.481,8.436,3.481c3.072,0,6.145-1.176,8.483-3.527c4.659-4.684,4.638-12.259-0.047-16.917L121.218,250.515z" fill="#e8c300" data-original="#000000" style="" class=""/>
<g xmlns="http://www.w3.org/2000/svg">
</g>
<g xmlns="http://www.w3.org/2000/svg">
</g>
<g xmlns="http://www.w3.org/2000/svg">
</g>
<g xmlns="http://www.w3.org/2000/svg">
</g>
<g xmlns="http://www.w3.org/2000/svg">
</g>
<g xmlns="http://www.w3.org/2000/svg">
</g>
<g xmlns="http://www.w3.org/2000/svg">
</g>
<g xmlns="http://www.w3.org/2000/svg">
</g>
<g xmlns="http://www.w3.org/2000/svg">
</g>
<g xmlns="http://www.w3.org/2000/svg">
</g>
<g xmlns="http://www.w3.org/2000/svg">
</g>
<g xmlns="http://www.w3.org/2000/svg">
</g>
<g xmlns="http://www.w3.org/2000/svg">
</g>
<g xmlns="http://www.w3.org/2000/svg">
</g>
<g xmlns="http://www.w3.org/2000/svg">
</g>
</g></svg>
