<?xml version="1.0" encoding="UTF-8" standalone="no"?>
<!DOCTYPE svg PUBLIC "-//W3C//DTD SVG 1.1//EN" "http://www.w3.org/Graphics/SVG/1.1/DTD/svg11.dtd">
<svg version="1.1" xmlns="http://www.w3.org/2000/svg" xmlns:xlink="http://www.w3.org/1999/xlink" preserveAspectRatio="xMidYMid meet" viewBox="0 0 640 640" width="30" height="30"><defs><path d="M70.57 185.43C70.57 312.31 236.51 498.59 243.58 506.46C250.21 513.85 261.8 513.84 268.42 506.46C275.49 498.59 441.43 312.31 441.43 185.43C441.43 83.18 358.24 0 256 0C153.76 0 70.57 83.18 70.57 185.43ZM162.71 185.43C162.71 133.98 204.56 92.13 256 92.13C307.44 92.13 349.29 133.99 349.29 185.43C349.29 236.87 307.44 278.72 256 278.72C204.56 278.72 162.71 236.87 162.71 185.43Z" id="a2j0Qi1Iit"></path></defs><g><g><g><use xlink:href="#a2j0Qi1Iit" opacity="1" fill="#e8c300" fill-opacity="1"></use><g><use xlink:href="#a2j0Qi1Iit" opacity="1" fill-opacity="0" stroke="#000000" stroke-width="1" stroke-opacity="0"></use></g></g></g></g></svg>