<?xml version="1.0" encoding="UTF-8" standalone="no"?>
<!DOCTYPE svg PUBLIC "-//W3C//DTD SVG 1.1//EN" "http://www.w3.org/Graphics/SVG/1.1/DTD/svg11.dtd">
<svg version="1.1" xmlns="http://www.w3.org/2000/svg" xmlns:xlink="http://www.w3.org/1999/xlink" preserveAspectRatio="xMidYMid meet" viewBox="0 0 640 640" width="30" height="29.76"><defs><path d="M377.43 28.74C374.76 33.34 371.13 39.89 366.52 48.37C361.92 56.85 357.67 64.55 353.79 71.46C349.91 78.38 346.16 84.86 342.53 90.91C341.8 91.88 339.68 94.91 336.16 100C332.65 105.1 330.04 109.39 328.34 112.92C326.65 116.43 325.8 119.89 325.8 123.28C325.8 128.13 329.25 134.18 336.16 141.45C343.07 148.72 350.58 155.39 358.71 161.45C366.83 167.51 374.34 173.93 381.25 180.71C388.16 187.51 391.62 193.09 391.62 197.44C391.62 199.63 391.01 202.36 389.8 205.63C388.59 208.9 387.55 211.38 386.72 213.09C385.86 214.78 384.17 217.68 381.62 221.81C379.07 225.94 377.68 228.24 377.43 228.72C359.01 261.93 337.91 290.41 314.17 314.17C290.4 337.93 261.92 359.02 228.71 377.44C228.22 377.69 225.92 379.08 221.8 381.63C217.68 384.17 214.77 385.87 213.07 386.72C211.37 387.57 208.89 388.6 205.62 389.81C202.34 391.02 199.62 391.63 197.44 391.63C193.07 391.63 187.5 388.17 180.71 381.26C173.92 374.35 167.5 366.84 161.44 358.72C155.38 350.59 148.71 343.08 141.44 336.17C134.17 329.26 128.11 325.81 123.27 325.81C119.87 325.81 116.42 326.66 112.9 328.35C109.38 330.05 105.08 332.66 99.99 336.17C94.9 339.69 91.87 341.81 90.9 342.54C84.84 346.17 78.36 349.93 71.45 353.81C64.54 357.69 56.84 361.93 48.36 366.54C39.88 371.14 33.33 374.78 28.72 377.45C11.76 385.93 2.54 392.35 1.09 396.71C0.36 398.41 0 400.96 0 404.35C0 410.9 1.21 419.44 3.63 429.99C6.06 440.53 8.6 448.83 11.27 454.9C16.36 467.02 31.15 479.86 55.63 493.44C78.41 505.8 100.96 511.99 123.26 511.99C129.8 511.99 136.16 511.56 142.35 510.71C148.53 509.86 155.5 508.35 163.26 506.16C171.02 503.98 176.78 502.23 180.53 500.9C184.29 499.56 191.01 497.08 200.71 493.44C210.41 489.81 216.35 487.63 218.53 486.9C242.29 478.41 263.5 468.35 282.16 456.72C313.19 437.58 345.26 411.45 378.35 378.36C411.44 345.27 437.56 313.21 456.71 282.18C468.35 263.52 478.4 242.3 486.89 218.55C487.62 216.36 489.8 210.43 493.44 200.73C497.08 191.03 499.56 184.31 500.9 180.55C502.23 176.8 503.99 171.03 506.18 163.28C508.36 155.52 509.88 148.55 510.73 142.37C511.57 136.19 512 129.82 512 123.28C512 100.98 505.81 78.43 493.45 55.64C479.88 31.17 467.03 16.38 454.9 11.29C448.84 8.61 440.54 6.08 429.99 3.65C419.45 1.22 410.91 0.02 404.36 0.02C400.96 0.01 398.42 0.37 396.7 1.1C392.34 2.55 385.91 11.77 377.43 28.74Z" id="adaVJIILJ"></path></defs><g><g><g><use xlink:href="#adaVJIILJ" opacity="1" fill="#e8c300" fill-opacity="1"></use><g><use xlink:href="#adaVJIILJ" opacity="1" fill-opacity="0" stroke="#000000" stroke-width="1" stroke-opacity="0"></use></g></g></g></g></svg>